<svg width="1024" height="341" viewBox="0 0 1024 341" fill="none" xmlns="http://www.w3.org/2000/svg">
  <path d="M163 0C73 0 0 73 0 163C0 253 73 326 163 326C253 326 326 253 326 163C326.6 73 253 0 163 0Z" fill="#1a66ff"/>
  <path d="M33 251V289L128 201V175L33 251Z" fill="#152C52"/>
  <path d="M135 192H191V178H135V192Z" fill="white"/>
  <path d="M135 141H191V127H135V141Z" fill="white"/>
  <path d="M135 90H191V76H135V90Z" fill="white"/>
  <path d="M330 89H391.2C409.3 89 422.7 94.1 431.3 104.3C439.9 114.5 444.2 129.1 444.2 148.1V161.9C444.2 172.5 442.4 181.7 438.8 189.5C435.2 197.3 429.9 203.2 422.9 207.2C415.9 211.2 407.4 213.2 397.4 213.2H330V89ZM388.9 186C402.9 186 409.9 175.7 409.9 155V147.5C409.9 136.1 408.1 127.9 404.5 122.9C400.9 117.9 394.4 115.4 384.9 115.4H363.7V186H388.9Z" fill="#152C52"/>
  <path d="M540.5 89H580.8L553.1 213.2H492.9L465.2 89H505.5L523.1 186.9L540.5 89Z" fill="#152C52"/>
  <path d="M588.8 89H664.8V116.2H622.5V138.1H659.8V165.3H622.5V186H664.8V213.2H588.8V89Z" fill="#152C52"/>
  <path d="M674.4 89H718.9C744.2 89 756.9 101.7 756.9 127V135.7C756.9 151.1 751.3 161.3 740.1 166.2C752.4 170.6 758.5 180.7 758.5 196.4V203.9C758.5 229.2 745.5 241.8 719.5 241.8H674.4V89ZM709.6 148.7C716.1 148.7 720.5 145.8 722.6 140C723 138.9 723.3 136.5 723.3 132.9V127.9C723.3 118.9 719.6 114.4 712.1 114.4H708.2V148.7H709.6ZM712.9 216.7C724.1 216.7 724.1 210.3 724.1 197.4V192.3C724.1 182.2 717.2 174.3 707.8 174.3H708.1V216.7H712.9Z" fill="#152C52"/>
  <path d="M815.6 89H779.3L748.3 213.2H782.7L787.8 186H807.1L812.2 213.2H848.2L815.6 89ZM792.5 160L797.5 132.7L802.4 160H792.5Z" fill="#152C52"/>
  <path d="M854.7 89H889.1V186H927.7V213.2H854.7V89Z" fill="#152C52"/>
</svg>
